<mxfile host="app.diagrams.net" agent="Mozilla/5.0 (Windows NT 10.0; Win64; x64) AppleWebKit/537.36 (KHTML, like Gecko) Chrome/131.0.0.0 Safari/537.36" version="24.9.2">
  <diagram name="Page-1" id="q6bTNU0Bb0r1d_ds81eu">
    <mxGraphModel dx="934" dy="445" grid="1" gridSize="10" guides="1" tooltips="1" connect="1" arrows="1" fold="1" page="1" pageScale="1" pageWidth="827" pageHeight="1169" math="0" shadow="0">
      <root>
        <mxCell id="0" />
        <mxCell id="1" parent="0" />
        <mxCell id="NBiasI5mmAmGq7dsY7FG-1" value="" style="verticalLabelPosition=bottom;sketch=0;html=1;fillColor=#A153A0;strokeColor=#ffffff;verticalAlign=top;align=center;points=[[0,0.5,0],[0.125,0.25,0],[0.25,0,0],[0.5,0,0],[0.75,0,0],[0.875,0.25,0],[1,0.5,0],[0.875,0.75,0],[0.75,1,0],[0.5,1,0],[0.125,0.75,0]];pointerEvents=1;shape=mxgraph.cisco_safe.compositeIcon;bgIcon=ellipse;resIcon=mxgraph.cisco_safe.design.user;" vertex="1" parent="1">
          <mxGeometry x="614.5" y="10" width="50" height="50" as="geometry" />
        </mxCell>
        <mxCell id="NBiasI5mmAmGq7dsY7FG-2" value="" style="sketch=0;pointerEvents=1;shadow=0;dashed=0;html=1;strokeColor=none;fillColor=#505050;labelPosition=center;verticalLabelPosition=bottom;verticalAlign=top;outlineConnect=0;align=center;shape=mxgraph.office.servers.reverse_proxy;" vertex="1" parent="1">
          <mxGeometry x="619" y="120" width="41" height="53" as="geometry" />
        </mxCell>
        <mxCell id="NBiasI5mmAmGq7dsY7FG-6" value="Auth service" style="points=[[0,0],[0.25,0],[0.5,0],[0.75,0],[1,0],[1,0.25],[1,0.5],[1,0.75],[1,1],[0.75,1],[0.5,1],[0.25,1],[0,1],[0,0.75],[0,0.5],[0,0.25]];outlineConnect=0;gradientColor=none;html=1;whiteSpace=wrap;fontSize=12;fontStyle=0;container=1;pointerEvents=0;collapsible=0;recursiveResize=0;shape=mxgraph.aws4.group;grIcon=mxgraph.aws4.group_on_premise;strokeColor=#7D8998;fillColor=none;verticalAlign=top;align=left;spacingLeft=30;fontColor=#5A6C86;dashed=0;" vertex="1" parent="1">
          <mxGeometry x="40" y="240" width="160" height="240" as="geometry" />
        </mxCell>
        <mxCell id="NBiasI5mmAmGq7dsY7FG-7" value="Auth controller" style="rounded=1;whiteSpace=wrap;html=1;" vertex="1" parent="NBiasI5mmAmGq7dsY7FG-6">
          <mxGeometry x="20" y="40" width="120" height="60" as="geometry" />
        </mxCell>
        <mxCell id="NBiasI5mmAmGq7dsY7FG-8" value="Auth service" style="rounded=1;whiteSpace=wrap;html=1;" vertex="1" parent="NBiasI5mmAmGq7dsY7FG-6">
          <mxGeometry x="20" y="140" width="120" height="60" as="geometry" />
        </mxCell>
        <mxCell id="NBiasI5mmAmGq7dsY7FG-9" value="Notification service" style="points=[[0,0],[0.25,0],[0.5,0],[0.75,0],[1,0],[1,0.25],[1,0.5],[1,0.75],[1,1],[0.75,1],[0.5,1],[0.25,1],[0,1],[0,0.75],[0,0.5],[0,0.25]];outlineConnect=0;gradientColor=none;html=1;whiteSpace=wrap;fontSize=12;fontStyle=0;container=1;pointerEvents=0;collapsible=0;recursiveResize=0;shape=mxgraph.aws4.group;grIcon=mxgraph.aws4.group_on_premise;strokeColor=#7D8998;fillColor=none;verticalAlign=top;align=left;spacingLeft=30;fontColor=#5A6C86;dashed=0;" vertex="1" parent="1">
          <mxGeometry x="229" y="240" width="160" height="240" as="geometry" />
        </mxCell>
        <mxCell id="NBiasI5mmAmGq7dsY7FG-10" value="Notification controller" style="rounded=1;whiteSpace=wrap;html=1;" vertex="1" parent="NBiasI5mmAmGq7dsY7FG-9">
          <mxGeometry x="20" y="40" width="120" height="60" as="geometry" />
        </mxCell>
        <mxCell id="NBiasI5mmAmGq7dsY7FG-11" value="Notification service" style="rounded=1;whiteSpace=wrap;html=1;" vertex="1" parent="NBiasI5mmAmGq7dsY7FG-9">
          <mxGeometry x="20" y="140" width="120" height="60" as="geometry" />
        </mxCell>
        <mxCell id="NBiasI5mmAmGq7dsY7FG-12" value="User service" style="points=[[0,0],[0.25,0],[0.5,0],[0.75,0],[1,0],[1,0.25],[1,0.5],[1,0.75],[1,1],[0.75,1],[0.5,1],[0.25,1],[0,1],[0,0.75],[0,0.5],[0,0.25]];outlineConnect=0;gradientColor=none;html=1;whiteSpace=wrap;fontSize=12;fontStyle=0;container=1;pointerEvents=0;collapsible=0;recursiveResize=0;shape=mxgraph.aws4.group;grIcon=mxgraph.aws4.group_on_premise;strokeColor=#7D8998;fillColor=none;verticalAlign=top;align=left;spacingLeft=30;fontColor=#5A6C86;dashed=0;" vertex="1" parent="1">
          <mxGeometry x="420" y="240" width="260" height="250" as="geometry" />
        </mxCell>
        <mxCell id="NBiasI5mmAmGq7dsY7FG-13" value="User controller" style="rounded=1;whiteSpace=wrap;html=1;" vertex="1" parent="NBiasI5mmAmGq7dsY7FG-12">
          <mxGeometry x="20" y="40" width="80" height="60" as="geometry" />
        </mxCell>
        <mxCell id="NBiasI5mmAmGq7dsY7FG-14" value="User service" style="rounded=1;whiteSpace=wrap;html=1;" vertex="1" parent="NBiasI5mmAmGq7dsY7FG-12">
          <mxGeometry x="130" y="40" width="80" height="60" as="geometry" />
        </mxCell>
        <mxCell id="NBiasI5mmAmGq7dsY7FG-17" value="SQL" style="strokeWidth=2;html=1;shape=mxgraph.flowchart.database;whiteSpace=wrap;" vertex="1" parent="NBiasI5mmAmGq7dsY7FG-12">
          <mxGeometry x="100" y="205" width="30" height="45" as="geometry" />
        </mxCell>
        <mxCell id="NBiasI5mmAmGq7dsY7FG-18" value="User Async Process" style="rounded=1;whiteSpace=wrap;html=1;" vertex="1" parent="NBiasI5mmAmGq7dsY7FG-12">
          <mxGeometry x="130" y="140" width="80" height="60" as="geometry" />
        </mxCell>
        <mxCell id="NBiasI5mmAmGq7dsY7FG-25" value="User model" style="ellipse;whiteSpace=wrap;html=1;" vertex="1" parent="NBiasI5mmAmGq7dsY7FG-12">
          <mxGeometry x="190" y="200" width="70" height="50" as="geometry" />
        </mxCell>
        <mxCell id="NBiasI5mmAmGq7dsY7FG-15" value="User DAO" style="rounded=1;whiteSpace=wrap;html=1;" vertex="1" parent="NBiasI5mmAmGq7dsY7FG-12">
          <mxGeometry x="20" y="140" width="80" height="60" as="geometry" />
        </mxCell>
        <mxCell id="NBiasI5mmAmGq7dsY7FG-27" value="Card service" style="points=[[0,0],[0.25,0],[0.5,0],[0.75,0],[1,0],[1,0.25],[1,0.5],[1,0.75],[1,1],[0.75,1],[0.5,1],[0.25,1],[0,1],[0,0.75],[0,0.5],[0,0.25]];outlineConnect=0;gradientColor=none;html=1;whiteSpace=wrap;fontSize=12;fontStyle=0;container=1;pointerEvents=0;collapsible=0;recursiveResize=0;shape=mxgraph.aws4.group;grIcon=mxgraph.aws4.group_on_premise;strokeColor=#7D8998;fillColor=none;verticalAlign=top;align=left;spacingLeft=30;fontColor=#5A6C86;dashed=0;" vertex="1" parent="1">
          <mxGeometry x="720" y="240" width="260" height="252.5" as="geometry" />
        </mxCell>
        <mxCell id="NBiasI5mmAmGq7dsY7FG-28" value="Card controller" style="rounded=1;whiteSpace=wrap;html=1;" vertex="1" parent="NBiasI5mmAmGq7dsY7FG-27">
          <mxGeometry x="20" y="40" width="80" height="60" as="geometry" />
        </mxCell>
        <mxCell id="NBiasI5mmAmGq7dsY7FG-29" value="Card service" style="rounded=1;whiteSpace=wrap;html=1;" vertex="1" parent="NBiasI5mmAmGq7dsY7FG-27">
          <mxGeometry x="130" y="40" width="80" height="60" as="geometry" />
        </mxCell>
        <mxCell id="NBiasI5mmAmGq7dsY7FG-30" value="SQL" style="strokeWidth=2;html=1;shape=mxgraph.flowchart.database;whiteSpace=wrap;" vertex="1" parent="NBiasI5mmAmGq7dsY7FG-27">
          <mxGeometry x="100" y="205" width="30" height="45" as="geometry" />
        </mxCell>
        <mxCell id="NBiasI5mmAmGq7dsY7FG-31" value="Card Async Process" style="rounded=1;whiteSpace=wrap;html=1;" vertex="1" parent="NBiasI5mmAmGq7dsY7FG-27">
          <mxGeometry x="130" y="140" width="80" height="60" as="geometry" />
        </mxCell>
        <mxCell id="NBiasI5mmAmGq7dsY7FG-32" value="Card model" style="ellipse;whiteSpace=wrap;html=1;" vertex="1" parent="NBiasI5mmAmGq7dsY7FG-27">
          <mxGeometry x="190" y="200" width="70" height="50" as="geometry" />
        </mxCell>
        <mxCell id="NBiasI5mmAmGq7dsY7FG-33" value="Card DAO" style="rounded=1;whiteSpace=wrap;html=1;" vertex="1" parent="NBiasI5mmAmGq7dsY7FG-27">
          <mxGeometry x="20" y="140" width="80" height="60" as="geometry" />
        </mxCell>
        <mxCell id="NBiasI5mmAmGq7dsY7FG-34" value="Static content" style="rounded=1;whiteSpace=wrap;html=1;" vertex="1" parent="1">
          <mxGeometry x="435.5" y="116.5" width="120" height="60" as="geometry" />
        </mxCell>
        <mxCell id="NBiasI5mmAmGq7dsY7FG-35" value="Transaction service" style="points=[[0,0],[0.25,0],[0.5,0],[0.75,0],[1,0],[1,0.25],[1,0.5],[1,0.75],[1,1],[0.75,1],[0.5,1],[0.25,1],[0,1],[0,0.75],[0,0.5],[0,0.25]];outlineConnect=0;gradientColor=none;html=1;whiteSpace=wrap;fontSize=12;fontStyle=0;container=1;pointerEvents=0;collapsible=0;recursiveResize=0;shape=mxgraph.aws4.group;grIcon=mxgraph.aws4.group_on_premise;strokeColor=#7D8998;fillColor=none;verticalAlign=top;align=left;spacingLeft=30;fontColor=#5A6C86;dashed=0;" vertex="1" parent="1">
          <mxGeometry x="1040" y="240" width="220" height="240" as="geometry" />
        </mxCell>
        <mxCell id="NBiasI5mmAmGq7dsY7FG-36" value="Transaction controller" style="rounded=1;whiteSpace=wrap;html=1;" vertex="1" parent="NBiasI5mmAmGq7dsY7FG-35">
          <mxGeometry x="20" y="40" width="80" height="60" as="geometry" />
        </mxCell>
        <mxCell id="NBiasI5mmAmGq7dsY7FG-37" value="Transaction service" style="rounded=1;whiteSpace=wrap;html=1;" vertex="1" parent="NBiasI5mmAmGq7dsY7FG-35">
          <mxGeometry x="130" y="40" width="80" height="60" as="geometry" />
        </mxCell>
        <mxCell id="NBiasI5mmAmGq7dsY7FG-39" value="Transaction&amp;nbsp; Async Process" style="rounded=1;whiteSpace=wrap;html=1;" vertex="1" parent="NBiasI5mmAmGq7dsY7FG-35">
          <mxGeometry x="75" y="130" width="80" height="60" as="geometry" />
        </mxCell>
        <mxCell id="NBiasI5mmAmGq7dsY7FG-43" value="" style="image;sketch=0;aspect=fixed;html=1;points=[];align=center;fontSize=12;image=img/lib/mscae/Docker.svg;" vertex="1" parent="1">
          <mxGeometry x="980" y="300" width="60.98" height="50" as="geometry" />
        </mxCell>
        <mxCell id="NBiasI5mmAmGq7dsY7FG-44" value="" style="image;sketch=0;aspect=fixed;html=1;points=[];align=center;fontSize=12;image=img/lib/mscae/Docker.svg;" vertex="1" parent="1">
          <mxGeometry x="979.02" y="240" width="60.98" height="50" as="geometry" />
        </mxCell>
        <mxCell id="NBiasI5mmAmGq7dsY7FG-45" value="ESB" style="ellipse;whiteSpace=wrap;html=1;fillColor=default;" vertex="1" parent="1">
          <mxGeometry x="40" y="530" width="120" height="80" as="geometry" />
        </mxCell>
      </root>
    </mxGraphModel>
  </diagram>
</mxfile>
